<svg width="10" height="10" viewBox="0 0 10 10" fill="none" xmlns="http://www.w3.org/2000/svg">
<path d="M1.25 2.43074C0.973858 2.43074 0.75 2.65459 0.75 2.93074C0.75 3.20688 0.973858 3.43074 1.25 3.43074V2.43074ZM8.75 3.43074C9.02614 3.43074 9.25 3.20688 9.25 2.93074C9.25 2.65459 9.02614 2.43074 8.75 2.43074V3.43074ZM2.08333 2.93074V2.43074H1.58333V2.93074H2.08333ZM7.91666 2.93074H8.41666V2.43074H7.91666V2.93074ZM7.64243 7.01311L8.12281 7.15179L7.64243 7.01311ZM5.71831 8.69021L5.80163 9.18322H5.80163L5.71831 8.69021ZM4.28167 8.69021L4.36498 8.1972L4.36498 8.1972L4.28167 8.69021ZM4.21594 8.67911L4.13263 9.17212L4.13264 9.17212L4.21594 8.67911ZM2.35756 7.0131L1.87718 7.15178L2.35756 7.0131ZM5.78405 8.67911L5.70074 8.1861L5.78405 8.67911ZM3.26773 2.28773L3.72159 2.49752L3.26773 2.28773ZM3.67417 1.74262L3.34049 1.37026L3.34049 1.37026L3.67417 1.74262ZM4.28247 1.37839L4.45646 1.84714V1.84714L4.28247 1.37839ZM5.71753 1.37839L5.89153 0.909641V0.90964L5.71753 1.37839ZM6.73227 2.28773L7.18614 2.07795V2.07795L6.73227 2.28773ZM1.25 3.43074H8.75V2.43074H1.25V3.43074ZM5.70074 8.1861L5.635 8.1972L5.80163 9.18322L5.86736 9.17212L5.70074 8.1861ZM4.36498 8.1972L4.29925 8.1861L4.13264 9.17212L4.19836 9.18323L4.36498 8.1972ZM7.41666 2.93074V5.07375H8.41666V2.93074H7.41666ZM2.58333 5.07376V2.93074H1.58333V5.07376H2.58333ZM7.41666 5.07375C7.41666 5.68314 7.33093 6.28941 7.16204 6.87444L8.12281 7.15179C8.31774 6.47655 8.41666 5.77691 8.41666 5.07375H7.41666ZM5.635 8.1972C5.21459 8.26825 4.7854 8.26825 4.36498 8.1972L4.19836 9.18322C4.72907 9.27291 5.27091 9.27291 5.80163 9.18322L5.635 8.1972ZM4.29926 8.1861C3.60513 8.0688 3.036 7.56052 2.83795 6.87443L1.87718 7.15178C2.18081 8.20359 3.05608 8.99019 4.13263 9.17212L4.29926 8.1861ZM2.83795 6.87443C2.66907 6.28941 2.58333 5.68314 2.58333 5.07376H1.58333C1.58333 5.77691 1.68226 6.47655 1.87718 7.15178L2.83795 6.87443ZM5.86736 9.17212C6.94391 8.99019 7.81918 8.2036 8.12281 7.15179L7.16204 6.87444C6.96398 7.56053 6.39486 8.0688 5.70074 8.1861L5.86736 9.17212ZM3.625 2.93074C3.625 2.78385 3.6572 2.63682 3.72159 2.49752L2.81386 2.07795C2.6898 2.34636 2.625 2.63632 2.625 2.93074H3.625ZM3.72159 2.49752C3.78607 2.35801 3.88234 2.22747 4.00786 2.11498L3.34049 1.37026C3.11779 1.56982 2.93784 1.80974 2.81386 2.07795L3.72159 2.49752ZM4.00786 2.11498C4.13349 2.0024 4.28552 1.91059 4.45646 1.84714L4.10847 0.90964C3.82445 1.01507 3.56308 1.17079 3.34049 1.37026L4.00786 2.11498ZM4.45646 1.84714C4.62744 1.78368 4.81227 1.75049 5 1.75049V0.750488C4.69527 0.750488 4.39247 0.804223 4.10847 0.90964L4.45646 1.84714ZM5 1.75049C5.18773 1.75049 5.37256 1.78368 5.54354 1.84714L5.89153 0.90964C5.60753 0.804223 5.30473 0.750488 5 0.750488V1.75049ZM5.54354 1.84714C5.71448 1.91059 5.86651 2.0024 5.99214 2.11498L6.65951 1.37026C6.43692 1.17079 6.17555 1.01507 5.89153 0.909641L5.54354 1.84714ZM5.99214 2.11498C6.11766 2.22747 6.21393 2.35801 6.27841 2.49752L7.18614 2.07795C7.06216 1.80974 6.88221 1.56982 6.65951 1.37026L5.99214 2.11498ZM6.27841 2.49752C6.3428 2.63682 6.375 2.78385 6.375 2.93074H7.375C7.375 2.63632 7.3102 2.34636 7.18614 2.07795L6.27841 2.49752ZM2.08333 3.43074H7.91666V2.43074H2.08333V3.43074Z" fill="white"/>
</svg>
