<svg width="28" height="23" viewBox="0 0 28 23" fill="none" xmlns="http://www.w3.org/2000/svg">
<path d="M1.5 21.428H4M4 21.428H11.5M4 21.428V10.7431C4 10.0752 4 9.74107 4.08121 9.43027C4.15319 9.15484 4.27224 8.89419 4.43213 8.65866C4.61255 8.39287 4.8633 8.17247 5.36597 7.73264L11.3679 2.48091C12.2998 1.66553 12.7658 1.25782 13.2905 1.10263C13.7533 0.965789 14.2465 0.965789 14.7092 1.10263C15.2344 1.25794 15.701 1.66603 16.6343 2.48264L22.6343 7.73264C23.1369 8.17246 23.3878 8.39288 23.5682 8.65866C23.7281 8.89419 23.8462 9.15484 23.9182 9.43027C23.9994 9.74107 24 10.0752 24 10.7431V21.428M11.5 21.428H16.5M11.5 21.428V16.428C11.5 15.0472 12.6193 13.928 14 13.928C15.3807 13.928 16.5 15.0472 16.5 16.428V21.428M16.5 21.428H24M24 21.428H26.5" stroke="#7A7E89" stroke-width="2" stroke-linecap="round" stroke-linejoin="round"/>
</svg>
