<svg width="263" height="91" viewBox="0 0 263 91" fill="none" xmlns="http://www.w3.org/2000/svg">
<path d="M49.6297 36.5916C49.1389 36.2858 48.689 35.9995 48.2355 35.722C47.1294 35.0463 45.152 35.0516 44.2184 35.8892C43.8218 36.2449 43.6849 36.9171 43.4733 37.4576C42.8207 39.0759 43.219 38.818 41.4727 38.7576C40.4673 38.723 39.4652 38.6232 38.4728 38.4588C38.1829 38.4108 37.9393 38.0534 37.6903 37.8115C37.6192 37.7422 37.6334 37.5875 37.6032 37.4737C37.0057 35.1405 36.8919 34.9841 34.6263 34.0949C34.3525 33.9882 33.9453 34.1127 33.6358 34.2301C32.8961 34.5075 32.119 35.1797 31.4699 35.0623C30.8724 34.9538 30.4225 34.0256 29.9068 33.4619L29.8481 33.3961C28.1285 31.4399 28.1107 31.4399 29.4106 29.2135C29.7325 28.6623 29.5885 28.2035 29.5173 27.6362C29.3128 26.0037 28.3863 25.1964 26.8695 24.9314C25.9963 24.7785 25.8132 24.2557 25.9128 23.4644C26.0586 22.3209 26.1208 21.165 26.2826 20.0252C26.3182 19.7744 26.5938 19.5183 26.8161 19.3476C27.0228 19.2291 27.2555 19.1631 27.4936 19.1556C28.9447 18.9777 29.9726 18.3287 30.5256 16.8723C30.7604 16.2499 30.819 15.8053 30.5256 15.2291C30.17 14.5285 29.5493 13.7229 29.6703 13.0774C29.7805 12.4799 30.707 12.0264 31.2885 11.5232C31.8339 11.0229 32.408 10.555 33.0081 10.1219C33.2268 9.97253 33.6252 10.0081 33.9168 10.0703C34.1761 10.1492 34.4103 10.2945 34.5961 10.4918C35.8036 11.6157 37.139 11.5161 38.5083 10.8883C38.7901 10.7488 39.0228 10.5268 39.1752 10.2517C39.3711 9.82052 39.5363 9.37603 39.6695 8.92157C40.2457 7.33356 39.8812 7.55229 41.6452 7.61631C42.6503 7.64927 43.652 7.75027 44.6434 7.91861C44.9564 7.97374 45.2551 8.33829 45.4721 8.62993C45.6158 8.85755 45.686 9.12391 45.673 9.39281C45.673 11.1124 46.836 11.8468 48.1964 12.3839C48.472 12.4941 48.8793 12.4052 49.1816 12.2896C50.028 11.966 50.9296 11.1907 51.6712 11.3347C52.3611 11.4698 52.8715 12.5457 53.4494 13.2179C55.0161 15.0495 55.0143 15.0531 53.766 17.0803C52.932 18.4372 53.6273 20.4733 55.1193 21.0459L55.2846 21.1064C57.2941 21.8692 57.2941 21.8692 57.0771 24.0174C57.038 24.3997 56.9633 24.7821 56.9491 25.1644C56.8797 27.3268 56.8157 27.0832 55.1175 27.3126C53.2663 27.5597 53.0547 29.025 52.4003 30.1898C52.2811 30.4014 52.5158 30.8567 52.6634 31.1625C53.7002 33.316 53.7055 33.3107 51.8419 34.8454C51.271 35.3148 50.7109 35.8003 50.1383 36.268C49.9749 36.3852 49.8051 36.4933 49.6297 36.5916V36.5916ZM41.5634 32.1459C46.379 32.137 50.4228 28.1057 50.4175 23.315C50.4175 18.4763 46.3505 14.4325 41.4994 14.4378C36.618 14.4378 32.688 18.4372 32.7022 23.379C32.7074 24.5369 32.9407 25.6824 33.389 26.7499C33.8373 27.8175 34.4916 28.7863 35.3147 29.6007C36.1377 30.4151 37.1132 31.0593 38.1854 31.4963C39.2577 31.9334 40.4056 32.1547 41.5634 32.1477V32.1459Z" fill="#FFB627"/>
<path d="M10.1982 59.167C9.67891 59.5226 9.28057 59.7698 8.90002 60.0472C7.69079 60.9275 7.75481 62.279 9.0494 63.0223C9.45024 63.2273 9.77214 63.559 9.96508 63.9658C10.158 64.3726 10.2112 64.8317 10.1164 65.2718C9.99567 66.0001 9.75913 66.7043 9.41572 67.3577C9.26382 67.6253 9.16826 67.921 9.13492 68.2268C9.10159 68.5327 9.13118 68.8421 9.22189 69.136C9.90653 71.6452 11.5852 73.1443 14.0944 73.4412C15.8015 73.6422 17.5674 73.427 19.3012 73.315C20.2117 73.2581 21.1097 73.0127 22.0184 72.8704C22.9271 72.7282 23.7362 72.9291 24.1648 73.7684C26.2756 77.9101 28.5465 82.0072 29.1244 86.7232C29.3022 88.1281 29.1511 89.5685 29.0106 91C29.2293 86.1062 27.1985 81.9308 24.9206 77.8407C24.3871 76.884 23.8536 75.9237 23.3468 74.9546C23.0587 74.4051 22.6835 74.229 22.0451 74.3535C20.1299 74.7305 18.2147 75.1804 16.2763 75.344C13.6267 75.5663 11.1335 75.0097 9.16321 73.0145C7.81349 71.6452 7.15731 69.9558 6.99548 68.0726C6.96525 67.717 7.11641 67.3311 7.25689 66.9896C7.51296 66.3672 7.82416 65.7662 8.11046 65.158C8.00615 65.0518 7.89443 64.9532 7.77615 64.8628C5.85916 63.6625 5.26521 61.4681 6.36597 59.4728C6.60782 59.0336 6.49045 58.8184 6.30017 58.4059C5.81538 57.3347 5.43888 56.2177 5.1763 55.0716C4.98247 54.2234 4.70328 53.7735 3.75367 53.6383C2.38084 53.4409 1.15205 52.815 0.792836 51.3212C0.64346 50.7113 0.666578 49.8986 0.949325 49.3651C3.00324 45.4529 5.12295 41.5904 7.26934 37.7334C8.06245 36.3107 7.96465 34.8881 6.89412 33.654C6.37065 33.0655 5.9918 32.363 5.78774 31.6023C5.58367 30.8416 5.56002 30.0437 5.71868 29.2723C6.75541 23.5818 8.5088 18.1242 11.4821 13.1255C14.8839 7.4101 19.4417 2.98751 25.8275 0.711313C26.8361 0.358324 27.8812 0.119724 28.943 0C28.8417 0.0694627 28.7339 0.129013 28.6212 0.177828C22.0789 2.25842 17.37 6.57964 13.8614 12.3359C10.6499 17.6281 8.92847 23.4609 7.88996 29.5195C7.79192 29.9859 7.80834 30.469 7.93779 30.9277C8.06724 31.3863 8.30587 31.8068 8.63328 32.1531C10.3298 33.9794 10.5485 36.7073 9.32147 38.9017C7.26934 42.5738 5.30434 46.2922 3.27532 49.9768C2.90721 50.649 3.12594 51.0047 3.77146 51.1416C4.49094 51.3042 5.22357 51.4018 5.96052 51.4332C6.49401 51.451 6.76431 51.6111 6.86922 52.1445C7.05594 53.103 7.35114 54.0438 7.50585 55.0058C7.70146 56.2239 8.15314 57.2607 9.1312 58.0538C9.49397 58.3507 9.78383 58.7295 10.1982 59.167Z" fill="url(#paint0_linear_226_2326)"/>
<path d="M43.8417 51.2143C43.4346 50.7745 43.0534 50.3113 42.7001 49.8272C42.6443 49.7087 42.6154 49.5794 42.6154 49.4484C42.6154 49.3175 42.6443 49.1881 42.7001 49.0697C43.2976 47.9245 43.0984 47.3021 41.9888 46.7455C41.857 46.6607 41.7454 46.5479 41.6621 46.4151C41.5788 46.2823 41.5258 46.1328 41.5069 45.9772C41.4749 45.1005 41.4073 44.199 42.7054 44.03C43.3883 43.9376 43.7048 42.9826 43.3296 42.3122C42.9864 41.6987 43.1678 41.3413 43.6657 40.9838C44.1636 40.6264 44.5548 39.9293 45.3906 40.5197C46.2673 41.135 47.0231 40.8469 47.3681 39.8475C47.5459 39.3531 47.7806 39.0704 48.3212 39.2162C48.9312 39.3816 49.7848 38.9477 50.0284 40.02C50.304 41.2239 50.9602 41.5102 52.1054 40.9785C52.5393 40.7758 52.8167 40.8202 53.0746 41.2114C53.2391 41.4583 53.4305 41.6862 53.6454 41.8907C54.0011 42.2322 54.01 42.5416 53.7503 42.9755C53.1013 44.0656 53.3253 44.7538 54.4723 45.1575C54.9293 45.3193 55.0431 45.5469 55.0165 45.9986C54.9649 46.8877 55.084 47.768 53.7717 47.9013C53.1493 47.9654 52.8452 48.9861 53.1599 49.6512C53.3876 50.1313 53.4925 50.5545 52.9483 50.8586C52.4042 51.1627 52.0823 52.0625 51.17 51.4543C50.3147 50.8906 49.4433 51.2321 49.0859 52.187C48.9205 52.6316 48.7391 52.845 48.1968 52.7756C47.3183 52.6636 46.4949 52.7347 46.2922 51.4828C46.1784 50.7555 45.0865 50.6808 43.8417 51.2143ZM48.2732 42.161C47.7618 42.1542 47.254 42.2487 46.7792 42.439C46.3044 42.6294 45.872 42.9118 45.5068 43.27C45.1417 43.6282 44.851 44.0551 44.6516 44.5262C44.4522 44.9972 44.348 45.5031 44.345 46.0146C44.3568 47.0364 44.7688 48.0129 45.4926 48.7343C46.2164 49.4557 47.1942 49.8645 48.2161 49.8729C49.2379 49.8813 50.2223 49.4886 50.9579 48.7791C51.6934 48.0697 52.1214 47.1001 52.1499 46.0786C52.1872 43.9767 50.4089 42.1806 48.2732 42.1646V42.161Z" fill="#136F63"/>
<path d="M26.2472 26.8237C26.1885 26.9411 26.1067 27.0976 26.0285 27.2558C25.712 27.8978 25.8507 28.4259 26.514 28.6944C26.9532 28.8723 27.1204 29.1017 27.0368 29.5551C26.9532 30.0086 27.0634 30.4905 26.409 30.6701C25.6604 30.8746 25.4274 31.3992 25.6977 32.1781C25.7273 32.3177 25.7224 32.4625 25.6833 32.5998C25.6443 32.7371 25.5723 32.8627 25.4737 32.9659C25.1358 33.2006 24.6059 33.4994 24.3053 33.382C23.4749 33.0601 22.9752 33.1793 22.584 34.0008C22.4915 34.1947 22.0629 34.3458 21.8122 34.3174C21.4476 34.2747 20.8839 34.1395 20.7932 33.8888C20.4696 33.0086 19.9948 32.7311 19.1021 33.0459C18.9243 33.1117 18.5455 32.9445 18.4014 32.7685C18.1294 32.4413 17.6279 32.187 17.9515 31.5717C18.3837 30.7235 18.1969 30.3749 17.386 29.8823C17.2718 29.795 17.1799 29.6817 17.1181 29.5518C17.0563 29.4219 17.0262 29.2792 17.0304 29.1355C17.0962 28.7549 17.2562 28.2321 17.5425 28.0792C18.4779 27.5777 18.5828 27.4301 18.3428 26.3987C18.3268 26.2674 18.3428 26.1342 18.3892 26.0104C18.4356 25.8866 18.5112 25.7758 18.6095 25.6874C18.9367 25.4669 19.4524 25.1539 19.7138 25.2748C20.6136 25.682 21.1578 25.5522 21.5294 24.6062C21.5952 24.4283 22.0185 24.2896 22.2407 24.3288C22.5964 24.3928 23.1583 24.5386 23.249 24.7876C23.5762 25.6892 24.0137 26.0644 24.9651 25.6251C25.3634 25.4473 26.2721 26.2973 26.2472 26.8237ZM21.9793 32.2919C22.5601 32.3014 23.1305 32.1379 23.618 31.8221C24.1054 31.5062 24.4878 31.0525 24.7165 30.5185C24.9451 29.9846 25.0096 29.3947 24.9018 28.824C24.794 28.2533 24.5187 27.7275 24.111 27.3138C23.7033 26.9001 23.1817 26.6171 22.6127 26.5009C22.0436 26.3847 21.4528 26.4405 20.9156 26.6613C20.3783 26.882 19.919 27.2577 19.596 27.7404C19.273 28.2232 19.1011 28.7912 19.1021 29.372C19.1171 30.1338 19.4232 30.8609 19.9577 31.404C20.4922 31.947 21.2143 32.2648 21.9758 32.2919H21.9793Z" fill="#D00000"/>
<path d="M86.7344 65.015C85.1585 65.015 83.5827 64.8896 82.0068 64.6389C80.4309 64.424 78.9446 64.0838 77.5478 63.6182C76.151 63.1168 74.8975 62.5079 73.7872 61.7916C73.1425 61.3618 72.6948 60.8425 72.4441 60.2337C72.1934 59.6248 72.1039 59.0338 72.1755 58.4608C72.2829 57.8519 72.5157 57.3326 72.8739 56.9028C73.2679 56.4372 73.7514 56.1507 74.3244 56.0433C74.8975 55.9358 75.5242 56.097 76.2047 56.5268C77.7806 57.458 79.446 58.1385 81.2009 58.5682C82.9559 58.998 84.8004 59.2129 86.7344 59.2129C89.5638 59.2129 91.6232 58.7473 92.9125 57.8161C94.2019 56.8491 94.8465 55.6135 94.8465 54.1092C94.8465 52.8557 94.381 51.8708 93.4498 51.1545C92.5544 50.4382 90.9964 49.8472 88.7759 49.3816L82.8664 48.146C79.4639 47.4297 76.921 46.2299 75.2377 44.5466C73.5902 42.8274 72.7665 40.5711 72.7665 37.7775C72.7665 36.0226 73.1246 34.4288 73.8409 32.9962C74.5572 31.5636 75.56 30.3279 76.8494 29.2893C78.1746 28.2506 79.7325 27.4627 81.5233 26.9255C83.3499 26.3524 85.3555 26.0659 87.5402 26.0659C89.6892 26.0659 91.7306 26.3345 93.6646 26.8718C95.5987 27.409 97.3357 28.1969 98.8758 29.2356C99.4488 29.6295 99.8249 30.113 100.004 30.6861C100.219 31.2591 100.273 31.8322 100.165 32.4052C100.058 32.9424 99.807 33.408 99.413 33.802C99.019 34.196 98.5176 34.4288 97.9087 34.5004C97.3357 34.572 96.6731 34.393 95.921 33.9632C94.5958 33.2111 93.2528 32.6738 91.8918 32.3515C90.5308 32.0292 89.0624 31.868 87.4865 31.868C85.839 31.868 84.4243 32.1008 83.2424 32.5664C82.0605 33.032 81.1472 33.6946 80.5025 34.5541C79.8937 35.3779 79.5893 36.3628 79.5893 37.5089C79.5893 38.7982 80.019 39.8369 80.8786 40.6248C81.7382 41.3769 83.2066 41.9679 85.2839 42.3977L91.1397 43.6333C94.6854 44.3854 97.3178 45.5673 99.0369 47.179C100.792 48.7907 101.669 50.9396 101.669 53.6257C101.669 55.3449 101.311 56.9028 100.595 58.2996C99.9144 59.6964 98.9116 60.8962 97.5864 61.8991C96.2971 62.9019 94.7391 63.6719 92.9125 64.2091C91.0859 64.7464 89.0266 65.015 86.7344 65.015Z" fill="#003459"/>
<path d="M118.698 65.015C116.37 65.015 114.418 64.621 112.842 63.8331C111.302 63.0451 110.156 61.8991 109.404 60.3948C108.652 58.8548 108.276 56.9566 108.276 54.7002V43.2572H105.482C104.623 43.2572 103.96 43.0423 103.495 42.6126C103.029 42.147 102.796 41.5202 102.796 40.7323C102.796 39.9085 103.029 39.2817 103.495 38.852C103.96 38.4222 104.623 38.2073 105.482 38.2073H108.276V33.3185C108.276 32.2082 108.563 31.3666 109.136 30.7935C109.744 30.2205 110.586 29.934 111.661 29.934C112.735 29.934 113.559 30.2205 114.132 30.7935C114.705 31.3666 114.991 32.2082 114.991 33.3185V38.2073H120.686C121.546 38.2073 122.208 38.4222 122.674 38.852C123.139 39.2817 123.372 39.9085 123.372 40.7323C123.372 41.5202 123.139 42.147 122.674 42.6126C122.208 43.0423 121.546 43.2572 120.686 43.2572H114.991V54.3241C114.991 56.0433 115.367 57.3326 116.12 58.1922C116.872 59.0518 118.089 59.4815 119.773 59.4815C120.382 59.4815 120.919 59.4278 121.384 59.3204C121.85 59.2129 122.262 59.1413 122.62 59.1055C123.05 59.0697 123.408 59.2129 123.694 59.5353C123.981 59.8218 124.124 60.4306 124.124 61.3618C124.124 62.0781 123.999 62.7228 123.748 63.2959C123.533 63.8331 123.121 64.2091 122.513 64.424C122.047 64.5673 121.438 64.6927 120.686 64.8001C119.934 64.9434 119.271 65.015 118.698 65.015Z" fill="#003459"/>
<path d="M135.932 65.015C134.034 65.015 132.333 64.6568 130.828 63.9405C129.36 63.1884 128.196 62.1856 127.336 60.9321C126.513 59.6785 126.101 58.2638 126.101 56.6879C126.101 54.7539 126.602 53.2318 127.605 52.1215C128.608 50.9754 130.237 50.1517 132.494 49.6503C134.75 49.1488 137.776 48.8981 141.573 48.8981H144.259V52.7662H141.627C139.406 52.7662 137.633 52.8736 136.308 53.0885C134.983 53.3034 134.034 53.6795 133.461 54.2167C132.923 54.7181 132.655 55.4344 132.655 56.3656C132.655 57.5475 133.067 58.5145 133.89 59.2666C134.714 60.0188 135.86 60.3948 137.329 60.3948C138.511 60.3948 139.549 60.1262 140.445 59.589C141.376 59.0159 142.11 58.2459 142.647 57.2789C143.185 56.3119 143.453 55.2016 143.453 53.9481V47.77C143.453 45.9792 143.059 44.6898 142.271 43.9019C141.483 43.114 140.158 42.72 138.296 42.72C137.257 42.72 136.129 42.8454 134.911 43.0961C133.729 43.3468 132.476 43.7766 131.151 44.3854C130.47 44.7077 129.861 44.7973 129.324 44.654C128.823 44.5108 128.429 44.2242 128.142 43.7945C127.856 43.3289 127.712 42.8274 127.712 42.2902C127.712 41.753 127.856 41.2337 128.142 40.7323C128.429 40.195 128.912 39.8011 129.593 39.5504C131.24 38.8699 132.816 38.3864 134.32 38.0998C135.86 37.8133 137.257 37.6701 138.511 37.6701C141.089 37.6701 143.202 38.064 144.85 38.852C146.533 39.6399 147.787 40.8397 148.611 42.4514C149.434 44.0273 149.846 46.0687 149.846 48.5758V61.4693C149.846 62.5796 149.578 63.4391 149.04 64.048C148.503 64.621 147.733 64.9075 146.73 64.9075C145.727 64.9075 144.939 64.621 144.366 64.048C143.829 63.4391 143.561 62.5796 143.561 61.4693V58.8906H143.99C143.74 60.1441 143.238 61.2365 142.486 62.1677C141.77 63.0631 140.857 63.7615 139.746 64.2629C138.636 64.7643 137.365 65.015 135.932 65.015Z" fill="#003459"/>
<path d="M168.696 65.015C166.368 65.015 164.416 64.621 162.84 63.8331C161.3 63.0451 160.154 61.8991 159.402 60.3948C158.65 58.8548 158.274 56.9566 158.274 54.7002V43.2572H155.48C154.621 43.2572 153.958 43.0423 153.493 42.6126C153.027 42.147 152.794 41.5202 152.794 40.7323C152.794 39.9085 153.027 39.2817 153.493 38.852C153.958 38.4222 154.621 38.2073 155.48 38.2073H158.274V33.3185C158.274 32.2082 158.56 31.3666 159.133 30.7935C159.742 30.2205 160.584 29.934 161.658 29.934C162.733 29.934 163.557 30.2205 164.13 30.7935C164.703 31.3666 164.989 32.2082 164.989 33.3185V38.2073H170.684C171.543 38.2073 172.206 38.4222 172.672 38.852C173.137 39.2817 173.37 39.9085 173.37 40.7323C173.37 41.5202 173.137 42.147 172.672 42.6126C172.206 43.0423 171.543 43.2572 170.684 43.2572H164.989V54.3241C164.989 56.0433 165.365 57.3326 166.117 58.1922C166.87 59.0518 168.087 59.4815 169.771 59.4815C170.379 59.4815 170.917 59.4278 171.382 59.3204C171.848 59.2129 172.26 59.1413 172.618 59.1055C173.048 59.0697 173.406 59.2129 173.692 59.5353C173.979 59.8218 174.122 60.4306 174.122 61.3618C174.122 62.0781 173.997 62.7228 173.746 63.2959C173.531 63.8331 173.119 64.2091 172.51 64.424C172.045 64.5673 171.436 64.6927 170.684 64.8001C169.932 64.9434 169.269 65.015 168.696 65.015Z" fill="#003459"/>
<path d="M184.564 64.9077C183.454 64.9077 182.594 64.6032 181.985 63.9944C181.412 63.3497 181.126 62.4722 181.126 61.362V29.7192C181.126 28.5731 181.412 27.6956 181.985 27.0868C182.594 26.4779 183.454 26.1735 184.564 26.1735C185.674 26.1735 186.516 26.4779 187.089 27.0868C187.698 27.6956 188.002 28.5731 188.002 29.7192V61.362C188.002 62.4722 187.716 63.3497 187.143 63.9944C186.569 64.6032 185.71 64.9077 184.564 64.9077Z" fill="#FFB627"/>
<path d="M210.47 64.9077C209.36 64.9077 208.501 64.6032 207.892 63.9944C207.319 63.3497 207.032 62.4722 207.032 61.362V32.3516H196.556C195.625 32.3516 194.891 32.1009 194.354 31.5995C193.852 31.0623 193.601 30.346 193.601 29.4506C193.601 28.5194 193.852 27.821 194.354 27.3554C194.891 26.854 195.625 26.6033 196.556 26.6033H224.385C225.316 26.6033 226.032 26.854 226.534 27.3554C227.071 27.821 227.339 28.5194 227.339 29.4506C227.339 30.346 227.071 31.0623 226.534 31.5995C226.032 32.1009 225.316 32.3516 224.385 32.3516H213.909V61.362C213.909 62.4722 213.622 63.3497 213.049 63.9944C212.476 64.6032 211.616 64.9077 210.47 64.9077Z" fill="#FFB627"/>
<path d="M246.131 64.9077C245.021 64.9077 244.161 64.6032 243.552 63.9944C242.979 63.3497 242.693 62.4722 242.693 61.362V32.3516H232.217C231.286 32.3516 230.551 32.1009 230.014 31.5995C229.513 31.0623 229.262 30.346 229.262 29.4506C229.262 28.5194 229.513 27.821 230.014 27.3554C230.551 26.854 231.286 26.6033 232.217 26.6033H260.045C260.976 26.6033 261.693 26.854 262.194 27.3554C262.731 27.821 263 28.5194 263 29.4506C263 30.346 262.731 31.0623 262.194 31.5995C261.693 32.1009 260.976 32.3516 260.045 32.3516H249.569V61.362C249.569 62.4722 249.283 63.3497 248.71 63.9944C248.137 64.6032 247.277 64.9077 246.131 64.9077Z" fill="#FFB627"/>
<defs>
<linearGradient id="paint0_linear_226_2326" x1="14.9536" y1="0" x2="14.9536" y2="91" gradientUnits="userSpaceOnUse">
<stop stop-color="#FFB627"/>
<stop offset="1" stop-color="#D00000"/>
</linearGradient>
</defs>
</svg>
